# Blender v2.76 (sub 0) OBJ File: ''
# www.blender.org
o Cylinder
v 0.000000 0.000000 -1.000000
v 0.382683 0.000000 -0.923880
v 0.707107 0.000000 -0.707107
v 0.923880 0.000000 -0.382683
v 1.000000 0.000000 0.000000
v 0.923880 0.000000 0.382684
v 0.707107 0.000000 0.707107
v 0.382683 0.000000 0.923880
v 0.000000 0.000000 1.000000
v -0.382683 0.000000 0.923880
v -0.707107 0.000000 0.707107
v -0.923880 0.000000 0.382684
v -1.000000 0.000000 -0.000000
v -0.923879 0.000000 -0.382684
v -0.707107 0.000000 -0.707107
v -0.382683 0.000000 -0.923880
vn 0.000000 -1.000000 0.000000
s off
f 8//1 12//1 4//1
f 16//1 1//1 2//1
f 2//1 3//1 16//1
f 4//1 5//1 6//1
f 6//1 7//1 4//1
f 8//1 9//1 12//1
f 10//1 11//1 12//1
f 12//1 13//1 14//1
f 14//1 15//1 16//1
f 16//1 3//1 4//1
f 4//1 7//1 8//1
f 9//1 10//1 12//1
f 12//1 14//1 16//1
f 16//1 4//1 12//1
